# xmcd
#
# Track frame offsets:
#	150
#	8459
#	28363
#	46675
#	62505
#	66648
#	84203
#	102002
#	104311
#	119916
#	138127
#	155590
#	160533
#	178110
#	194068
#	212528
#	230811
#	246380
#
# Disc length: 3548 seconds
#
# Revision: 0
# Processed by: cddbd v1.5.2PL0 Copyright (c) Steve Scherf et al.
# Submitted via: EasyCDDAExtractor 11.0.2.1
#
DISCID=f70dda12
DTITLE=Moody - Beside Me
DYEAR=2003
DGENRE=Rap
TTITLE0=Intro
TTITLE1=Raw
TTITLE2=It's Go'n Down (Feat. Ella Morales)
TTITLE3=Put'Em Up (Feat. Big Herk)
TTITLE4=Skit
TTITLE5=Watch Ya Girlfriend
TTITLE6=Rickochet (Feat. Gambitt)
TTITLE7=Skit
TTITLE8=Come Thru (Feat. Kimmie)
TTITLE9=Roll With Me (Feat. RB Kidd)
TTITLE10=Who You Bump'n (Feat. Gambitt and Dooley)
TTITLE11=Skit
TTITLE12=Tuck Yo Chain (Feat. Malik and Tony Diamond)
TTITLE13=Beside Myself (Feat. Lil Sis)
TTITLE14=You Don't Wont it
TTITLE15=We Soldiers
TTITLE16=Me And You  (Feat. Kimmie)
TTITLE17=Oh! Trouble
EXTD=
EXTT0=
EXTT1=
EXTT2=
EXTT3=
EXTT4=
EXTT5=
EXTT6=
EXTT7=
EXTT8=
EXTT9=
EXTT10=
EXTT11=
EXTT12=
EXTT13=
EXTT14=
EXTT15=
EXTT16=
EXTT17=
PLAYORDER=
